<svg id="Layer_1" data-name="Layer 1" xmlns="http://www.w3.org/2000/svg" viewBox="0 0 500.61 46.92"><defs><style>.cls-1{fill:#fff;}</style></defs><title>Socrata Data Academy Logo - white</title><path class="cls-1" d="M42.77,11.68a23,23,0,0,0-8.68-8.43l-.3-.16c-.24-.13-.5-.24-.74-.36L27.39,19Z" transform="translate(-2.78 -2.73)"/><path class="cls-1" d="M40.39,23.37A17.33,17.33,0,1,1,23.06,6a17.16,17.16,0,0,1,5.66,1l1-2.79A20.27,20.27,0,1,0,43.35,23.37a20.08,20.08,0,0,0-1.74-8.17L39,16.47A17.29,17.29,0,0,1,40.39,23.37Z" transform="translate(-2.78 -2.73)"/><path class="cls-1" d="M8.68,23.37a14.38,14.38,0,1,0,27.61-5.64L33.62,19a11.43,11.43,0,1,1-10.56-7.06,11.22,11.22,0,0,1,3.72.64l1-2.79A14.35,14.35,0,0,0,8.68,23.37Z" transform="translate(-2.78 -2.73)"/><path class="cls-1" d="M14.58,23.37a8.48,8.48,0,0,0,17,0,8.38,8.38,0,0,0-.6-3.09l-2.4,1.14-.29.13a5.51,5.51,0,1,1-5.19-3.7,5.24,5.24,0,0,1,1.77.32l0-.06,1-2.75a8.36,8.36,0,0,0-2.75-.47A8.5,8.5,0,0,0,14.58,23.37Z" transform="translate(-2.78 -2.73)"/><path class="cls-1" d="M67.17,11.43l-1.62-.59c-.49-.17-1-.32-1.43-.44a8.74,8.74,0,0,0-1.46-.26c-.5-.05-1-.07-1.64-.07a9.76,9.76,0,0,0-2,.21,6.33,6.33,0,0,0-1.85.7,3.8,3.8,0,0,0-1.36,1.34,3.93,3.93,0,0,0-.52,2.11,3.47,3.47,0,0,0,1,2.6,11.49,11.49,0,0,0,2.61,1.86c1,.56,2.18,1.11,3.4,1.66a17.22,17.22,0,0,1,3.4,2,10.46,10.46,0,0,1,2.6,3,8.79,8.79,0,0,1,1,4.46,9.78,9.78,0,0,1-.94,4.48,8.12,8.12,0,0,1-2.58,3A10.91,10.91,0,0,1,62,39.26a19.12,19.12,0,0,1-4.62.54,13.83,13.83,0,0,1-3.4-.42c-1.11-.28-2.21-.59-3.31-.94l.47-4.36,1.41.52c.53.19,1.09.36,1.69.51s1.21.29,1.85.4a11,11,0,0,0,1.85.17,8.13,8.13,0,0,0,2.14-.31,6.55,6.55,0,0,0,2.08-.94,5.5,5.5,0,0,0,1.58-1.64,4.54,4.54,0,0,0,.63-2.46,4.34,4.34,0,0,0-1-3,10.06,10.06,0,0,0-2.61-2c-1-.57-2.18-1.13-3.4-1.66a19,19,0,0,1-3.4-1.9A9.57,9.57,0,0,1,51.36,19a7.73,7.73,0,0,1-1-4.18A8.48,8.48,0,0,1,51.15,11a8.13,8.13,0,0,1,2.23-2.79,9.81,9.81,0,0,1,3.33-1.71,14.05,14.05,0,0,1,4.12-.59,23.94,23.94,0,0,1,3.48.28,19.41,19.41,0,0,1,3.51.89Z" transform="translate(-2.78 -2.73)"/><path class="cls-1" d="M71.81,27.28a14.12,14.12,0,0,1,.87-5A11.25,11.25,0,0,1,79,15.7a13.66,13.66,0,0,1,10,0,11.06,11.06,0,0,1,3.85,2.6,11.63,11.63,0,0,1,2.46,4,14.12,14.12,0,0,1,.87,5,13.31,13.31,0,0,1-.89,4.86,12.29,12.29,0,0,1-2.49,4,11.49,11.49,0,0,1-3.84,2.7,12.92,12.92,0,0,1-9.87,0,11.85,11.85,0,0,1-3.85-2.7,12.18,12.18,0,0,1-2.51-4A13.31,13.31,0,0,1,71.81,27.28Zm4.69,0a12.08,12.08,0,0,0,.44,3.19,9.43,9.43,0,0,0,1.36,2.88,7,7,0,0,0,2.33,2.09,6.72,6.72,0,0,0,3.37.8,6.65,6.65,0,0,0,3.33-.8,7,7,0,0,0,2.32-2.09A9,9,0,0,0,91,30.47a11.7,11.7,0,0,0,.45-3.19,10.59,10.59,0,0,0-.52-3.3,9.57,9.57,0,0,0-1.45-2.89,7.11,7.11,0,0,0-2.34-2A6.6,6.6,0,0,0,84,18.32a6.5,6.5,0,0,0-3.16.75,7.25,7.25,0,0,0-2.35,2A9.38,9.38,0,0,0,77,24,10.59,10.59,0,0,0,76.5,27.28Z" transform="translate(-2.78 -2.73)"/><path class="cls-1" d="M115.33,19.36a13.87,13.87,0,0,0-2.48-.78,11.34,11.34,0,0,0-2.3-.26,6.9,6.9,0,0,0-3.26.75,7.39,7.39,0,0,0-2.42,2,9.45,9.45,0,0,0-1.5,2.89,10.88,10.88,0,0,0-.51,3.3,12.08,12.08,0,0,0,.44,3.19,8.69,8.69,0,0,0,1.41,2.88,7.07,7.07,0,0,0,2.49,2.09,7.72,7.72,0,0,0,3.63.8,9.49,9.49,0,0,0,2.42-.35,8.54,8.54,0,0,0,2.32-1l.33,3.94a8.72,8.72,0,0,1-2.84.82,24.55,24.55,0,0,1-2.7.16,12.09,12.09,0,0,1-5-1,11.91,11.91,0,0,1-3.84-2.7,12.18,12.18,0,0,1-2.51-4,13.11,13.11,0,0,1-.89-4.86,14.34,14.34,0,0,1,.86-5,11.3,11.3,0,0,1,6.34-6.56,12.65,12.65,0,0,1,5-.94,15.76,15.76,0,0,1,2.89.28,13.71,13.71,0,0,1,2.46.66Z" transform="translate(-2.78 -2.73)"/><path class="cls-1" d="M119,15.32h4.12V19h.1a7.66,7.66,0,0,1,2.6-3.07,6.22,6.22,0,0,1,3.64-1.2,11.38,11.38,0,0,1,1.59.09c.41.07.84.14,1.31.24V19a5.41,5.41,0,0,0-1.24-.33,8.56,8.56,0,0,0-1.2-.1,5.47,5.47,0,0,0-4.73,2.63,12.52,12.52,0,0,0-1.78,7.13V39.24H119Z" transform="translate(-2.78 -2.73)"/><path class="cls-1" d="M136.48,17a17.17,17.17,0,0,1,3.61-1.62,14,14,0,0,1,4.27-.63q5.16,0,7.39,2.48c1.48,1.66,2.23,4.13,2.23,7.42v9.89c0,1.38,0,2.42,0,3.12a10.89,10.89,0,0,0,.15,1.57H150V36.15h-.1a7.42,7.42,0,0,1-1,1.19,8.55,8.55,0,0,1-1.57,1.17,10,10,0,0,1-2.11.92,9,9,0,0,1-2.7.37,14.08,14.08,0,0,1-3.54-.42,7.69,7.69,0,0,1-2.79-1.33,6,6,0,0,1-1.8-2.33,8,8,0,0,1-.64-3.37,6.18,6.18,0,0,1,1.11-3.76,8.36,8.36,0,0,1,2.74-2.41,12.24,12.24,0,0,1,3.61-1.31,18.17,18.17,0,0,1,3.66-.4h2.34c.69,0,1.47,0,2.35.09a7.24,7.24,0,0,0-1.29-4.67c-.86-1-2.4-1.57-4.62-1.57a11.07,11.07,0,0,0-3.73.66,10.49,10.49,0,0,0-3.21,1.78Zm13.09,10.83c-.47,0-.94,0-1.41,0s-.94-.05-1.41-.05-1.36,0-2.29.12a11.23,11.23,0,0,0-2.75.58,6.53,6.53,0,0,0-2.3,1.39,3.29,3.29,0,0,0-1,2.51,3.16,3.16,0,0,0,.43,1.66,4.14,4.14,0,0,0,1.05,1.22,4.54,4.54,0,0,0,1.43.75,5.09,5.09,0,0,0,1.55.26,6.46,6.46,0,0,0,5-1.81A6.27,6.27,0,0,0,149.57,30Z" transform="translate(-2.78 -2.73)"/><path class="cls-1" d="M172.22,18.89h-6.33V32a4.29,4.29,0,0,0,1.1,3.19,3.6,3.6,0,0,0,2.6,1.08,5.31,5.31,0,0,0,1.76-.26,6.64,6.64,0,0,0,1.25-.58v3.75c-.5.15-1.07.3-1.72.44a9.53,9.53,0,0,1-2,.21,8.08,8.08,0,0,1-5.39-1.66q-2-1.66-2-5.28v-14h-5.39V15.32h5.39V9.79l4.41-1.41v6.94h6.33Z" transform="translate(-2.78 -2.73)"/><path class="cls-1" d="M177,17a16.94,16.94,0,0,1,3.61-1.62,13.9,13.9,0,0,1,4.27-.63q5.16,0,7.38,2.48t2.23,7.42v9.89c0,1.38,0,2.42.05,3.12a13,13,0,0,0,.14,1.57h-4.13V36.15h-.09a8,8,0,0,1-1,1.19,8.55,8.55,0,0,1-1.57,1.17,10.1,10.1,0,0,1-2.12.92,8.93,8.93,0,0,1-2.69.37,14.08,14.08,0,0,1-3.54-.42,7.69,7.69,0,0,1-2.79-1.33,6,6,0,0,1-1.81-2.33,8.17,8.17,0,0,1-.63-3.37,6.18,6.18,0,0,1,1.1-3.76,8.46,8.46,0,0,1,2.74-2.41,12.34,12.34,0,0,1,3.61-1.31,18.32,18.32,0,0,1,3.66-.4h2.35q1,0,2.34.09a7.24,7.24,0,0,0-1.29-4.67c-.86-1-2.4-1.57-4.62-1.57a11,11,0,0,0-3.72.66,10.54,10.54,0,0,0-3.22,1.78ZM190,27.84c-.47,0-.93,0-1.4,0s-.94-.05-1.41-.05-1.36,0-2.3.12a11.15,11.15,0,0,0-2.74.58,6.45,6.45,0,0,0-2.3,1.39,3.29,3.29,0,0,0-1,2.51,3.25,3.25,0,0,0,.42,1.66,4,4,0,0,0,1.06,1.22,4.44,4.44,0,0,0,1.43.75,5,5,0,0,0,1.54.26,6.45,6.45,0,0,0,5-1.81A6.27,6.27,0,0,0,190,30Z" transform="translate(-2.78 -2.73)"/><path class="cls-1" d="M211.24,6.5h9.66a20.51,20.51,0,0,1,6.83,1.11,16.67,16.67,0,0,1,5.53,3.16,14.8,14.8,0,0,1,3.73,5,16.13,16.13,0,0,1,1.36,6.78,19.91,19.91,0,0,1-1.22,7.25,13.79,13.79,0,0,1-3.47,5.2,14.57,14.57,0,0,1-5.49,3.15,23.46,23.46,0,0,1-7.27,1.05h-9.66Zm4.69,28.61h4.93q6,0,9.28-3t3.24-9.33a13.45,13.45,0,0,0-.92-5.11,10.75,10.75,0,0,0-6.33-6.22,13.39,13.39,0,0,0-4.71-.82h-5.49Z" transform="translate(-2.78 -2.73)"/><path class="cls-1" d="M244.17,17a16.72,16.72,0,0,1,3.61-1.62,13.88,13.88,0,0,1,4.26-.63c3.44,0,5.91.83,7.39,2.48s2.23,4.13,2.23,7.42v9.89c0,1.38,0,2.42,0,3.12a11.22,11.22,0,0,0,.14,1.57h-4.13V36.15h-.09a7.53,7.53,0,0,1-1,1.19A8.22,8.22,0,0,1,255,38.51a10,10,0,0,1-2.11.92,8.93,8.93,0,0,1-2.69.37,14.11,14.11,0,0,1-3.55-.42,7.85,7.85,0,0,1-2.79-1.33,6,6,0,0,1-1.8-2.33,8.17,8.17,0,0,1-.63-3.37,6.18,6.18,0,0,1,1.1-3.76,8.46,8.46,0,0,1,2.74-2.41,12.24,12.24,0,0,1,3.61-1.31,18.32,18.32,0,0,1,3.66-.4h2.35c.68,0,1.47,0,2.34.09A7.24,7.24,0,0,0,256,19.89c-.86-1-2.4-1.57-4.62-1.57a11.07,11.07,0,0,0-3.73.66,10.61,10.61,0,0,0-3.21,1.78Zm13.08,10.83c-.47,0-.94,0-1.41,0s-.93-.05-1.4-.05-1.36,0-2.3.12a11.33,11.33,0,0,0-2.75.58,6.4,6.4,0,0,0-2.29,1.39,3.29,3.29,0,0,0-1,2.51,3.25,3.25,0,0,0,.42,1.66,4.14,4.14,0,0,0,1.05,1.22A4.54,4.54,0,0,0,249,36a5.09,5.09,0,0,0,1.55.26,6.45,6.45,0,0,0,5-1.81A6.27,6.27,0,0,0,257.25,30Z" transform="translate(-2.78 -2.73)"/><path class="cls-1" d="M279.9,18.89h-6.33V32a4.25,4.25,0,0,0,1.11,3.19,3.58,3.58,0,0,0,2.6,1.08A5.35,5.35,0,0,0,279,36a6.84,6.84,0,0,0,1.24-.58v3.75c-.5.15-1.07.3-1.71.44a9.53,9.53,0,0,1-2,.21,8.11,8.11,0,0,1-5.4-1.66q-2-1.66-2-5.28v-14h-5.39V15.32h5.39V9.79l4.41-1.41v6.94h6.33Z" transform="translate(-2.78 -2.73)"/><path class="cls-1" d="M284.64,17a16.94,16.94,0,0,1,3.61-1.62,14,14,0,0,1,4.27-.63q5.16,0,7.39,2.48t2.22,7.42v9.89c0,1.38,0,2.42.05,3.12a13,13,0,0,0,.14,1.57h-4.13V36.15h-.09a7.42,7.42,0,0,1-1,1.19,8.55,8.55,0,0,1-1.57,1.17,10.24,10.24,0,0,1-2.11.92,9,9,0,0,1-2.7.37,14.08,14.08,0,0,1-3.54-.42,7.69,7.69,0,0,1-2.79-1.33,6.15,6.15,0,0,1-1.81-2.33,8.17,8.17,0,0,1-.63-3.37,6.25,6.25,0,0,1,1.1-3.76,8.5,8.5,0,0,1,2.75-2.41,12.14,12.14,0,0,1,3.61-1.31,18.17,18.17,0,0,1,3.66-.4h2.34c.69,0,1.47,0,2.35.09a7.3,7.3,0,0,0-1.29-4.67c-.86-1-2.4-1.57-4.62-1.57a11,11,0,0,0-3.73.66,10.54,10.54,0,0,0-3.22,1.78Zm13.09,10.83c-.47,0-.94,0-1.41,0s-.94-.05-1.41-.05-1.36,0-2.3.12a11.25,11.25,0,0,0-2.74.58,6.45,6.45,0,0,0-2.3,1.39,3.29,3.29,0,0,0-1,2.51A3.25,3.25,0,0,0,287,34a4.17,4.17,0,0,0,1.06,1.22,4.54,4.54,0,0,0,1.43.75,5.09,5.09,0,0,0,1.55.26,6.48,6.48,0,0,0,5-1.81A6.32,6.32,0,0,0,297.73,30Z" transform="translate(-2.78 -2.73)"/><path class="cls-1" d="M329.57,6.5h4.92l13.84,32.74h-5.11L339.89,31h-16l-3.33,8.25h-4.93Zm2.3,4.41-6.52,16.23h13Z" transform="translate(-2.78 -2.73)"/><path class="cls-1" d="M365.92,19.36a14,14,0,0,0-2.49-.78,11.26,11.26,0,0,0-2.3-.26,6.93,6.93,0,0,0-3.26.75,7.46,7.46,0,0,0-2.41,2A9,9,0,0,0,354,24a10.59,10.59,0,0,0-.52,3.3,11.7,11.7,0,0,0,.45,3.19,8.5,8.5,0,0,0,1.41,2.88,7,7,0,0,0,2.48,2.09,7.79,7.79,0,0,0,3.64.8,9.36,9.36,0,0,0,2.41-.35,8.54,8.54,0,0,0,2.32-1l.33,3.94a8.65,8.65,0,0,1-2.84.82,24.24,24.24,0,0,1-2.69.16,12,12,0,0,1-4.95-1,11.85,11.85,0,0,1-3.85-2.7,12.34,12.34,0,0,1-2.51-4,13.31,13.31,0,0,1-.89-4.86,14.12,14.12,0,0,1,.87-5A11.32,11.32,0,0,1,356,15.7a12.7,12.7,0,0,1,5-.94,15.74,15.74,0,0,1,2.88.28,13.25,13.25,0,0,1,2.46.66Z" transform="translate(-2.78 -2.73)"/><path class="cls-1" d="M370.75,17a16.94,16.94,0,0,1,3.61-1.62,14,14,0,0,1,4.27-.63q5.16,0,7.38,2.48t2.23,7.42v9.89c0,1.38,0,2.42.05,3.12a13,13,0,0,0,.14,1.57H384.3V36.15h-.09a8,8,0,0,1-1,1.19,8.91,8.91,0,0,1-1.57,1.17,10.1,10.1,0,0,1-2.12.92,8.93,8.93,0,0,1-2.69.37,14.08,14.08,0,0,1-3.54-.42,7.69,7.69,0,0,1-2.79-1.33,6,6,0,0,1-1.81-2.33,8.17,8.17,0,0,1-.63-3.37,6.25,6.25,0,0,1,1.1-3.76,8.46,8.46,0,0,1,2.74-2.41,12.34,12.34,0,0,1,3.61-1.31,18.32,18.32,0,0,1,3.66-.4h2.35q1,0,2.34.09a7.24,7.24,0,0,0-1.29-4.67c-.86-1-2.4-1.57-4.62-1.57a11,11,0,0,0-3.72.66A10.54,10.54,0,0,0,371,20.76Zm13.08,10.83c-.47,0-.93,0-1.4,0s-.94-.05-1.41-.05-1.36,0-2.3.12a11.15,11.15,0,0,0-2.74.58,6.45,6.45,0,0,0-2.3,1.39,3.29,3.29,0,0,0-1,2.51,3.25,3.25,0,0,0,.42,1.66,4,4,0,0,0,1.06,1.22,4.44,4.44,0,0,0,1.43.75,5,5,0,0,0,1.54.26,6.45,6.45,0,0,0,5-1.81A6.27,6.27,0,0,0,383.83,30Z" transform="translate(-2.78 -2.73)"/><path class="cls-1" d="M410.71,35.86h-.1a7,7,0,0,1-1.17,1.36,8.72,8.72,0,0,1-1.76,1.27,10.55,10.55,0,0,1-5.23,1.31,9,9,0,0,1-7.85-4,12.89,12.89,0,0,1-1.83-4.15,19.4,19.4,0,0,1-.59-4.76,16.65,16.65,0,0,1,.63-4.6,11.53,11.53,0,0,1,1.93-3.87A9.51,9.51,0,0,1,398,15.74a11.53,11.53,0,0,1,9.57.12,8.45,8.45,0,0,1,2.91,2.74h.09V4.07h4.41V39.24h-4.22Zm-13.84-8.67a11.48,11.48,0,0,0,.33,3,10.33,10.33,0,0,0,1.17,2.93,7.23,7.23,0,0,0,2.07,2.23,5.17,5.17,0,0,0,3,.89,6,6,0,0,0,3.22-.82,6.75,6.75,0,0,0,2.18-2.14,9.77,9.77,0,0,0,1.24-2.88,12.19,12.19,0,0,0-.05-6.38,9.25,9.25,0,0,0-1.31-2.88,6.61,6.61,0,0,0-2.2-2,6.07,6.07,0,0,0-3.12-.78,5.69,5.69,0,0,0-3.05.78,6.28,6.28,0,0,0-2.06,2A8.44,8.44,0,0,0,397.18,24,13,13,0,0,0,396.87,27.19Z" transform="translate(-2.78 -2.73)"/><path class="cls-1" d="M438.85,38.26l-1.36.49c-.47.17-1,.34-1.57.49a16.78,16.78,0,0,1-2,.4,18.59,18.59,0,0,1-2.6.16,14.74,14.74,0,0,1-5.51-.93,10.42,10.42,0,0,1-3.85-2.63,10.86,10.86,0,0,1-2.28-4.08,17.68,17.68,0,0,1-.75-5.3,14.31,14.31,0,0,1,.8-4.88A11.2,11.2,0,0,1,422,18.16a10.06,10.06,0,0,1,3.54-2.51,11.49,11.49,0,0,1,4.59-.89,10.92,10.92,0,0,1,5,1,8.58,8.58,0,0,1,3.24,2.84,12.22,12.22,0,0,1,1.76,4.29,25.2,25.2,0,0,1,.54,5.35H423.6a8.06,8.06,0,0,0,.64,3.23A7.66,7.66,0,0,0,426,34a8,8,0,0,0,2.53,1.64,7.84,7.84,0,0,0,3,.59,10.33,10.33,0,0,0,2.23-.26,17.77,17.77,0,0,0,2.16-.61,11.89,11.89,0,0,0,1.78-.77,8.62,8.62,0,0,0,1.2-.75ZM436,25a8.49,8.49,0,0,0-.4-2.58,6.62,6.62,0,0,0-1.15-2.13,5.15,5.15,0,0,0-1.88-1.43,6.05,6.05,0,0,0-2.53-.52,5.93,5.93,0,0,0-2.79.61,6,6,0,0,0-1.92,1.57,7.12,7.12,0,0,0-1.18,2.14A12.36,12.36,0,0,0,423.6,25Z" transform="translate(-2.78 -2.73)"/><path class="cls-1" d="M444.62,15.32h4.12v3.47h.1a8,8,0,0,1,3.09-3.07,9.6,9.6,0,0,1,4.5-1,7.85,7.85,0,0,1,4,1.1,6.77,6.77,0,0,1,2.84,3.54,7.42,7.42,0,0,1,1.54-2.16,9.78,9.78,0,0,1,2-1.45,8.41,8.41,0,0,1,2.07-.8,8.62,8.62,0,0,1,1.83-.23,9.38,9.38,0,0,1,3.86.7,6.76,6.76,0,0,1,2.56,1.93,7.64,7.64,0,0,1,1.43,2.88A13.88,13.88,0,0,1,479,23.9V39.24h-4.41V25a16.37,16.37,0,0,0-.17-2.29,7.12,7.12,0,0,0-.63-2.14A4.31,4.31,0,0,0,472.43,19a3.46,3.46,0,0,0-2.16-.64,5.28,5.28,0,0,0-2.88.75,5.93,5.93,0,0,0-1.95,2,9.23,9.23,0,0,0-1.1,2.83,14.94,14.94,0,0,0-.35,3.29V39.24h-4.41V25a16.37,16.37,0,0,0-.17-2.29,7.12,7.12,0,0,0-.63-2.14A4.31,4.31,0,0,0,457.47,19a3.48,3.48,0,0,0-2.16-.64,5.34,5.34,0,0,0-2.89.75,6,6,0,0,0-1.94,2,9.23,9.23,0,0,0-1.1,2.83,14.94,14.94,0,0,0-.36,3.29V39.24h-4.4Z" transform="translate(-2.78 -2.73)"/><path class="cls-1" d="M482.65,45.71a8.18,8.18,0,0,0,1,.26,5.1,5.1,0,0,0,1.11.12,3.65,3.65,0,0,0,2.46-.87,8,8,0,0,0,1.64-1.92,8.16,8.16,0,0,0,.89-2,7.42,7.42,0,0,0,.26-1.12,3.46,3.46,0,0,0-.31-1.15l-.54-1.38L481,15.32h4.83l6.43,19.79h.09l6.57-19.79h4.45l-8.82,24.44c-.4,1.15-.84,2.32-1.31,3.49a15.63,15.63,0,0,1-1.71,3.19A8.07,8.07,0,0,1,489,48.76a7,7,0,0,1-3.66.89,11.19,11.19,0,0,1-1.73-.11l-1.27-.22Z" transform="translate(-2.78 -2.73)"/></svg>